<svg xmlns="http://www.w3.org/2000/svg" viewBox="0 0 70 100">
  <!-- Female Martial Arts Master - The Queen -->
  <defs>
    <linearGradient id="queenGold" x1="0%" y1="0%" x2="100%" y2="100%">
      <stop offset="0%" style="stop-color:#f4d03f"/>
      <stop offset="100%" style="stop-color:#d4af37"/>
    </linearGradient>
  </defs>

  <!-- Figure -->
  <g transform="translate(35, 50)">
    <!-- Head -->
    <circle cx="0" cy="-25" r="10" fill="#e8d5c4"/>

    <!-- Hair (tied up in bun) -->
    <ellipse cx="0" cy="-35" rx="6" ry="5" fill="#1a0a00"/>
    <path d="M-8,-30 Q-10,-35 -6,-38 Q0,-42 6,-38 Q10,-35 8,-30" fill="#1a0a00"/>
    <!-- Hair decorative pin -->
    <line x1="-4" y1="-38" x2="8" y2="-35" stroke="url(#queenGold)" stroke-width="2"/>
    <circle cx="8" cy="-35" r="2" fill="url(#queenGold)"/>

    <!-- Elegant eyebrows -->
    <path d="M-6,-28 Q-4,-30 -2,-28" stroke="#333" stroke-width="1" fill="none"/>
    <path d="M2,-28 Q4,-30 6,-28" stroke="#333" stroke-width="1" fill="none"/>

    <!-- Eyes (focused) -->
    <ellipse cx="-4" cy="-25" rx="2" ry="1.5" fill="#333"/>
    <ellipse cx="4" cy="-25" rx="2" ry="1.5" fill="#333"/>
    <circle cx="-4.5" cy="-25.5" r="0.5" fill="#fff"/>
    <circle cx="3.5" cy="-25.5" r="0.5" fill="#fff"/>

    <!-- Subtle lips -->
    <path d="M-3,-20 Q0,-18 3,-20" stroke="#b08070" stroke-width="1" fill="none"/>

    <!-- Body - elegant gi -->
    <path d="M-10,-15 L-13,28 L0,25 L13,28 L10,-15 Z" fill="#f5f5f5"/>

    <!-- Gi collar (crossed elegantly) -->
    <path d="M-8,-15 L-4,10 L0,12 L4,10 L8,-15" fill="#e8e8e8"/>
    <path d="M-6,-15 L-2,8 L0,10" fill="none" stroke="#ddd" stroke-width="1"/>
    <path d="M6,-15 L2,8 L0,10" fill="none" stroke="#ddd" stroke-width="1"/>

    <!-- Red obi (belt) -->
    <rect x="-12" y="8" width="24" height="6" rx="1" fill="#c41e3a"/>
    <!-- Decorative obi knot -->
    <ellipse cx="10" cy="14" rx="4" ry="6" fill="#c41e3a"/>
    <path d="M10,10 Q15,20 12,25" stroke="#c41e3a" stroke-width="3" fill="none"/>
    <path d="M10,12 Q17,18 15,22" stroke="#c41e3a" stroke-width="2" fill="none"/>

    <!-- Arms in crane stance -->
    <path d="M-10,-10 L-22,-5 L-25,-8 L-20,-12 Z" fill="#f5f5f5"/>
    <path d="M10,-10 L22,-5 L25,-8 L20,-12 Z" fill="#f5f5f5"/>

    <!-- Graceful hands -->
    <g fill="#e8d5c4">
      <ellipse cx="-24" cy="-7" rx="3" ry="4" transform="rotate(-20, -24, -7)"/>
      <ellipse cx="24" cy="-7" rx="3" ry="4" transform="rotate(20, 24, -7)"/>
    </g>
  </g>

</svg>
